<svg width="80" height="72" viewBox="0 0 80 72" fill="none" xmlns="http://www.w3.org/2000/svg">
<path d="M36.451 4.85654C42.2866 4.89417 44.0497 5.01545 44.6827 5.19911C45.2144 5.21854 45.7687 5.23894 46.3966 5.29671C50.7943 5.4182 51.4424 5.72543 53.3855 6.05933C54.5475 6.259 55.5082 6.57932 56.4708 6.98192C57.4343 7.38488 58.5029 7.83969 59.3577 8.46625C60.403 9.23248 61.4316 10.1394 63.0878 11.3952C64.2521 12.2781 65.3185 13.1076 66.4955 14.2015C67.6202 15.2468 68.9804 16.155 70.6658 18.3333C71.6281 19.5771 72.5033 20.5416 73.1894 21.8601C73.7114 22.8633 74.4007 23.9569 74.4705 25.3135C74.5919 27.6748 74.8951 29.4356 74.9516 33.2139C74.9913 35.8686 75.1557 40.7985 74.9504 43.4154C74.6689 47.0023 74.3789 48.4552 73.8269 49.8074C73.3025 51.0921 72.7413 52.4222 71.9011 53.6157C71.1373 54.7006 69.8176 56.4184 68.6113 57.5863C67.2882 58.8674 66.3708 59.5762 65.3648 60.1496C64.2377 60.7919 62.9467 61.2424 60.9924 62.1945C59.585 62.8801 58.2833 63.9924 56.9845 64.3584C55.9813 64.6411 54.9902 65.2185 54.0579 65.7225C53.0944 66.2433 52.0036 66.9353 48.3575 67.0444C45.704 67.1238 40.8594 67.1899 38.2763 67.0829C35.3738 66.9626 34.6399 66.9557 33.8883 66.8423C32.564 66.6427 31.424 66.3712 29.8383 65.678C28.556 65.1174 27.629 64.7344 26.5917 64.2345C25.4286 63.674 24.4559 63.3753 23.5052 62.7911C22.4599 62.1488 20.8237 61.4005 19.6152 60.585C18.1248 59.5795 16.2 58.6897 15.3666 57.8991C14.521 57.0967 13.2565 56.6665 12.1971 55.7736C10.4217 54.2772 8.32645 52.0579 7.42776 50.3992C6.66394 48.9895 5.76847 47.4316 5.42379 46.3901C4.98475 45.0633 3.8457 43.7195 4.78507 37.116C5.23013 33.9874 5.72988 31.6042 8.76173 26.0509C9.71921 24.2971 10.3235 22.8552 11.2047 21.3657C12.3655 19.4039 13.1004 17.6495 14.4525 15.8747C15.7335 14.1931 17.975 11.7689 19.6633 10.5063C20.6268 9.78579 21.8077 9.25092 23.3152 8.33995C25.0389 7.29828 27.0342 6.18049 28.7653 5.85725C30.5047 5.53248 33.5309 4.83891 36.2471 4.85526C36.3081 4.85526 36.3763 4.8557 36.451 4.85654Z" fill="#DBE2E6"/>
<path d="M44.9198 5.29671C44.5228 5.05614 43.2406 4.89736 36.2471 4.85526M36.2471 4.85526C33.5309 4.83891 30.5047 5.53248 28.7653 5.85725C27.0342 6.18049 25.0389 7.29828 23.3152 8.33995C21.8077 9.25092 20.6268 9.78579 19.6633 10.5063C17.975 11.7689 15.7335 14.1931 14.4525 15.8747C13.1004 17.6495 12.3655 19.4039 11.2047 21.3657C10.3235 22.8552 9.71921 24.2971 8.76173 26.0509C5.72988 31.6042 5.23013 33.9874 4.78507 37.116C3.8457 43.7195 4.98475 45.0633 5.42379 46.3901C5.76847 47.4316 6.66394 48.9895 7.42776 50.3992C8.32645 52.0579 10.4217 54.2772 12.1971 55.7736C13.2565 56.6665 14.521 57.0967 15.3666 57.8991C16.2 58.6897 18.1248 59.5795 19.6152 60.585C20.8237 61.4005 22.4599 62.1488 23.5052 62.7911C24.4559 63.3753 25.4286 63.674 26.5917 64.2345C27.629 64.7344 28.556 65.1174 29.8383 65.678C31.424 66.3712 32.564 66.6427 33.8883 66.8423C34.6399 66.9557 35.3738 66.9626 38.2763 67.0829C40.8594 67.1899 45.704 67.1238 48.3575 67.0444C52.0036 66.9353 53.0944 66.2433 54.0579 65.7225C54.9902 65.2185 55.9813 64.6411 56.9845 64.3584C58.2833 63.9924 59.585 62.8801 60.9924 62.1945C62.9467 61.2424 64.2377 60.7919 65.3648 60.1496C66.3709 59.5762 67.2882 58.8674 68.6113 57.5863C69.8176 56.4184 71.1373 54.7006 71.9011 53.6157C72.7413 52.4222 73.3025 51.0921 73.8269 49.8074C74.3789 48.4552 74.6689 47.0023 74.9504 43.4154C75.1557 40.7985 74.9913 35.8686 74.9516 33.2139C74.8951 29.4356 74.5919 27.6748 74.4705 25.3135C74.4007 23.9569 73.7114 22.8633 73.1894 21.8601C72.5033 20.5416 71.6281 19.5771 70.6658 18.3333C68.9804 16.155 67.6202 15.2468 66.4955 14.2015C65.3185 13.1076 64.2521 12.2781 63.0878 11.3952C61.4316 10.1394 60.403 9.23248 59.3577 8.46625C58.5029 7.83969 57.4343 7.38488 56.4708 6.98192C55.5082 6.57932 54.5475 6.259 53.3855 6.05933C51.4424 5.72543 50.7943 5.4182 46.3966 5.29671C45.1023 5.17763 44.1211 5.21733 43.0048 5.09704C42.2061 5.05614 37.5558 4.85526 36.2471 4.85526Z" stroke="black" stroke-width="8" stroke-linecap="round"/>
<path d="M34.1811 21.0879C32.7377 28.4542 32.5789 31.3459 32.4574 32.6702C32.1771 34.1558 32.016 35.5944 31.8163 36.7215C31.7754 36.9633 31.7754 37.2014 31.7754 37.4468" stroke="black" stroke-width="8" stroke-linecap="round"/>
<path d="M48.3048 23.7344C47.5109 29.6092 47.1019 33.4294 47.0622 34.7514C47.0225 35.2794 46.9431 35.5176 46.9022 35.9182C46.8613 36.3187 46.8613 36.8744 46.8613 37.447" stroke="black" stroke-width="8" stroke-linecap="round"/>
<path d="M20.2578 47.0913L62.8203 47.0924" stroke="black" stroke-width="8" stroke-linecap="round"/>
</svg>
