<svg width="80" height="72" viewBox="0 0 80 72" fill="none" xmlns="http://www.w3.org/2000/svg">
<path d="M36.619 4.85605C42.4545 4.89368 44.2177 5.01496 44.8507 5.19862C45.3824 5.21805 45.9366 5.23845 46.5646 5.29623C50.9622 5.41772 51.6104 5.72494 53.5535 6.05884C54.7154 6.25852 55.6762 6.57883 56.6388 6.98144C57.6023 7.38439 58.6709 7.8392 59.5257 8.46577C60.571 9.23199 61.5996 10.1389 63.2557 11.3947C64.4201 12.2776 65.4865 13.1071 66.6634 14.201C67.7881 15.2463 69.1484 16.1545 70.8338 18.3328C71.7961 19.5766 72.6712 20.5411 73.3574 21.8596C73.8794 22.8628 74.5686 23.9565 74.6384 25.313C74.7599 27.6743 75.0631 29.4351 75.1196 33.2134C75.1593 35.8682 75.3237 40.798 75.1184 43.4149C74.8369 47.0018 74.5469 48.4547 73.9949 49.8069C73.4704 51.0916 72.9093 52.4217 72.0691 53.6152C71.3053 54.7002 69.9856 56.4179 68.7793 57.5858C67.4561 58.8669 66.5388 59.5758 65.5328 60.1491C64.4057 60.7914 63.1147 61.2419 61.1604 62.194C59.753 62.8796 58.4513 63.992 57.1524 64.3579C56.1492 64.6406 55.1582 65.218 54.2259 65.722C53.2624 66.2428 52.1715 66.9348 48.5255 67.0439C45.872 67.1233 41.0274 67.1895 38.4443 67.0824C35.5418 66.9621 34.8079 66.9552 34.0563 66.8418C32.7319 66.6422 31.592 66.3707 30.0062 65.6775C28.724 65.1169 27.797 64.7339 26.7597 64.234C25.5965 63.6735 24.6239 63.3748 23.6732 62.7906C22.6279 62.1483 20.9917 61.4 19.7831 60.5846C18.2928 59.579 16.3679 58.6892 15.5346 57.8986C14.689 57.0963 13.4244 56.666 12.3651 55.7731C10.5897 54.2767 8.49442 52.0574 7.59573 50.3987C6.83191 48.989 5.93643 47.4312 5.59176 46.3896C5.15272 45.0628 4.01367 43.719 4.95304 37.1155C5.3981 33.9869 5.89785 31.6037 8.9297 26.0504C9.88718 24.2966 10.4915 22.8547 11.3727 21.3653C12.5335 19.4034 13.2684 17.649 14.6204 15.8742C15.9015 14.1926 18.1429 11.7684 19.8312 10.5058C20.7947 9.78531 21.9757 9.25043 23.4831 8.33947C25.2068 7.29779 27.2021 6.18001 28.9333 5.85676C30.6726 5.53199 33.6989 4.83842 36.4151 4.85478C36.476 4.85478 36.5442 4.85521 36.619 4.85605Z" fill="#FFE3A6"/>
<path d="M45.0877 5.29623C44.6908 5.05565 43.4085 4.89688 36.4151 4.85478M36.4151 4.85478C33.6989 4.83842 30.6726 5.53199 28.9333 5.85676C27.2021 6.18001 25.2068 7.29779 23.4831 8.33947C21.9757 9.25043 20.7947 9.78531 19.8312 10.5058C18.1429 11.7684 15.9015 14.1926 14.6204 15.8742C13.2684 17.649 12.5335 19.4034 11.3727 21.3653C10.4915 22.8547 9.88718 24.2966 8.9297 26.0504C5.89785 31.6037 5.3981 33.9869 4.95304 37.1155C4.01367 43.719 5.15272 45.0628 5.59176 46.3896C5.93643 47.4312 6.83191 48.989 7.59573 50.3987C8.49442 52.0574 10.5897 54.2767 12.3651 55.7731C13.4244 56.666 14.689 57.0963 15.5346 57.8986C16.3679 58.6892 18.2928 59.579 19.7831 60.5846C20.9917 61.4 22.6279 62.1483 23.6732 62.7906C24.6239 63.3748 25.5966 63.6735 26.7597 64.234C27.797 64.7339 28.724 65.1169 30.0062 65.6775C31.592 66.3707 32.7319 66.6422 34.0563 66.8418C34.8079 66.9552 35.5418 66.9621 38.4443 67.0824C41.0274 67.1895 45.872 67.1233 48.5255 67.0439C52.1715 66.9348 53.2624 66.2428 54.2259 65.722C55.1582 65.218 56.1492 64.6406 57.1524 64.3579C58.4513 63.992 59.753 62.8796 61.1604 62.194C63.1147 61.2419 64.4057 60.7914 65.5328 60.1491C66.5388 59.5758 67.4561 58.8669 68.7793 57.5858C69.9856 56.4179 71.3053 54.7002 72.0691 53.6152C72.9093 52.4217 73.4704 51.0916 73.9949 49.8069C74.5469 48.4547 74.8369 47.0018 75.1184 43.4149C75.3237 40.798 75.1593 35.8682 75.1196 33.2134C75.0631 29.4351 74.7599 27.6743 74.6384 25.313C74.5686 23.9565 73.8794 22.8628 73.3574 21.8596C72.6713 20.5411 71.7961 19.5766 70.8338 18.3328C69.1484 16.1545 67.7881 15.2463 66.6634 14.201C65.4865 13.1071 64.4201 12.2776 63.2557 11.3947C61.5996 10.1389 60.571 9.23199 59.5257 8.46577C58.6709 7.8392 57.6023 7.38439 56.6388 6.98144C55.6762 6.57883 54.7154 6.25852 53.5535 6.05884C51.6104 5.72494 50.9622 5.41772 46.5646 5.29623C45.2703 5.17714 44.289 5.21684 43.1728 5.09655C42.3741 5.05565 37.7238 4.85478 36.4151 4.85478Z" stroke="black" stroke-width="8" stroke-linecap="round"/>
<path d="M19.1582 34.1646C19.1582 35.5214 19.317 37.2872 19.4385 38.2507C19.6268 39.7441 20.6786 41.7763 21.5194 43.0994C23.1513 45.6674 24.6048 46.6695 25.8894 47.8327C27.3233 49.131 30.0513 49.8787 31.5826 50.4814C33.8697 51.3815 36.5516 51.4858 38.4365 51.7648C40.4329 52.0604 41.6854 52.3663 43.0097 52.4877C45.7613 52.7402 50.7357 52.2123 52.3536 51.5279C53.3623 51.1011 54.4357 50.2059 56.4373 48.7673C59.6682 46.4451 59.7331 44.9951 60.7327 43.7923C61.6737 42.6599 62.2158 41.6271 62.5406 40.6636C63.1011 39.7001 63.4235 38.9784 63.4632 38.4985C63.5029 38.2567 63.5823 38.0185 63.6641 37.7731" stroke="black" stroke-width="8" stroke-linecap="round"/>
<path d="M34.3491 21.0874C32.9056 28.4537 32.7469 31.3454 32.6254 32.6698C32.3451 34.1553 32.1839 35.5939 31.9843 36.721C31.9434 36.9628 31.9434 37.2009 31.9434 37.4463" stroke="black" stroke-width="8" stroke-linecap="round"/>
<path d="M48.4727 23.7339C47.6788 29.6087 47.2699 33.429 47.2302 34.7509C47.1905 35.279 47.1111 35.5171 47.0702 35.9177C47.0293 36.3182 47.0293 36.8739 47.0293 37.4465" stroke="black" stroke-width="8" stroke-linecap="round"/>
</svg>
