<svg width="51" height="50" viewBox="0 0 51 50" fill="none" xmlns="http://www.w3.org/2000/svg">
<path d="M6.02148 45.5848C8.44296 42.9292 13.8053 36.0891 17.5912 31.9448C20.7946 28.4381 23.8131 25.1156 25.7664 22.1857C27.797 19.1398 30.3972 16.3369 31.864 13.2862C33.0747 11.4646 34.7866 9.50404 36.6119 7.55808C37.4714 6.57778 38.1957 5.61212 40.405 4.61719" stroke="#FF6161" stroke-width="8" stroke-linecap="round"/>
<path d="M4.55859 6.08057C8.91872 9.71644 16.7318 15.5763 19.1826 18.6269C21.5399 21.5613 24.2962 24.1063 27.2261 27.0436C29.7115 29.5352 36.4548 35.2993 41.0051 39.1144C42.1025 40.4495 43.3242 41.6785 44.7837 42.5308C45.5189 42.9002 46.2431 43.1416 46.9893 43.3904" stroke="#FF6161" stroke-width="8" stroke-linecap="round"/>
</svg>
